<svg width="834" height="595" viewBox="0 0 834 595" fill="none" xmlns="http://www.w3.org/2000/svg">
<path fill-rule="evenodd" clip-rule="evenodd" d="M844 485.477L796.333 474.506C748.667 463.535 653.333 441.593 558 463.535C462.667 485.477 367.333 551.303 272 578.73C176.667 606.157 81.3334 595.186 -13.9999 573.244C-109.333 551.303 -204.667 518.39 -252.333 501.933L-300 485.477V-22.5H-252.333C-204.667 -22.5 -109.333 -22.5 -13.9999 -22.5C81.3334 -22.5 176.667 -22.5 272 -22.5C367.333 -22.5 462.667 -22.5 558 -22.5C653.333 -22.5 748.667 -22.5 796.333 -22.5H844L844 485.477Z" fill="#8B5CF6"/>
</svg>
